name pl12_filtered_grf.mot
datacolumns 37
datarows 15
range 0.002500 0.009500
endheader
time	1_ground_force_vx	1_ground_force_vy	1_ground_force_vz	1_ground_force_px	1_ground_force_py	1_ground_force_pz	1_ground_torque_x	1_ground_torque_y	1_ground_torque_z	2_ground_force_vx	2_ground_force_vy	2_ground_force_vz	2_ground_force_px	2_ground_force_py	2_ground_force_pz	2_ground_torque_x	2_ground_torque_y	2_ground_torque_z	3_ground_force_vx	3_ground_force_vy	3_ground_force_vz	3_ground_force_px	3_ground_force_py	3_ground_force_pz	3_ground_torque_x	3_ground_torque_y	3_ground_torque_z	4_ground_force_vx	4_ground_force_vy	4_ground_force_vz	4_ground_force_px	4_ground_force_py	4_ground_force_pz	4_ground_torque_x	4_ground_torque_y	4_ground_torque_z
            0.002500	           -0.000000	            0.000000	            0.000000	            0.089498	            0.000000	            0.244568	            0.000000	            0.000000	           -0.000000	           -0.000000	            0.000000	            0.000000	           -0.155022	            0.000000	            0.264107	            0.000000	           -0.000000	            0.000000	           14.765971	          258.805881	          324.322706	            0.374314	            1.309148	            1.917497	           -0.783131	          -13.726072	          -17.200833	          -16.078291	          512.082683	          439.457393	           -0.265933	            1.308891	            1.928806	           -0.647426	           20.620077	           17.695668
            0.003000	           -0.000000	            0.000000	            0.000000	            0.089498	            0.000000	            0.244568	            0.000000	            0.000000	           -0.000000	           -0.000000	            0.000000	            0.000000	           -0.155022	            0.000000	            0.264107	            0.000000	           -0.000000	            0.000000	           15.138266	          257.940101	          324.537618	            0.374314	            1.309148	            1.917497	           -0.803933	          -13.698165	          -17.234892	          -15.997288	          510.920478	          439.900140	           -0.265933	            1.308891	            1.928806	           -0.644820	           20.594238	           17.731543
            0.003500	           -0.000000	            0.000000	            0.000000	            0.089498	            0.000000	            0.244568	            0.000000	            0.000000	           -0.000000	           -0.000000	            0.000000	            0.000000	           -0.155022	            0.000000	            0.264107	            0.000000	           -0.000000	            0.000000	           15.507756	          257.054442	          324.751049	            0.374316	            1.309155	            1.917510	           -0.824660	          -13.669458	          -17.269380	          -15.918233	          509.737519	          440.351101	           -0.265926	            1.308894	            1.928817	           -0.642291	           20.567588	           17.767890
            0.004000	           -0.000000	            0.000000	            0.000000	            0.089498	            0.000000	            0.244568	            0.000000	            0.000000	           -0.000000	           -0.000000	            0.000000	            0.000000	           -0.155022	            0.000000	            0.264107	            0.000000	           -0.000000	            0.000000	           15.873627	          256.149766	          324.962015	            0.374318	            1.309163	            1.917523	           -0.845270	          -13.639972	          -17.304224	          -15.841205	          508.535668	          440.809432	           -0.265920	            1.308897	            1.928828	           -0.639838	           20.540137	           17.804623
            0.004500	           -0.000000	            0.000000	            0.000000	            0.089498	            0.000000	            0.244568	            0.000000	            0.000000	           -0.000000	           -0.000000	            0.000000	            0.000000	           -0.155022	            0.000000	            0.264107	            0.000000	           -0.000000	            0.000000	           16.235103	          255.226929	          325.169526	            0.374320	            1.309171	            1.917536	           -0.865721	          -13.609731	          -17.339353	          -15.766252	          507.316747	          441.274287	           -0.265913	            1.308900	            1.928840	           -0.637463	           20.511894	           17.841657
            0.005000	           -0.000000	            0.000000	            0.000000	            0.089498	            0.000000	            0.244568	            0.000000	            0.000000	           -0.000000	           -0.000000	            0.000000	            0.000000	           -0.155022	            0.000000	            0.264107	            0.000000	           -0.000000	            0.000000	           16.591454	          254.286776	          325.372596	            0.374323	            1.309179	            1.917549	           -0.885973	          -13.578757	          -17.374696	          -15.693391	          506.082525	          441.744826	           -0.265907	            1.308902	            1.928851	           -0.635165	           20.482873	           17.878908
            0.005500	           -0.000000	            0.000000	            0.000000	            0.089498	            0.000000	            0.244568	            0.000000	            0.000000	           -0.000000	           -0.000000	            0.000000	            0.000000	           -0.155022	            0.000000	            0.264107	            0.000000	           -0.000000	            0.000000	           16.938118	          253.328604	          325.571641	            0.374325	            1.309187	            1.917562	           -0.905782	          -13.546988	          -17.410254	          -15.625450	          504.833080	          442.221974	           -0.265901	            1.308905	            1.928862	           -0.633056	           20.453023	           17.916370
            0.006000	            0.000000	            0.000000	            0.000000	            0.089498	            0.000000	            0.244568	            0.000000	           -0.000000	           -0.000000	           -0.000000	            0.000000	            0.000000	           -0.155022	            0.000000	            0.264107	            0.000000	           -0.000000	            0.000000	           17.278352	          252.354759	          325.764293	            0.374327	            1.309195	            1.917575	           -0.925320	          -13.514529	          -17.445881	          -15.559556	          503.571662	          442.703152	           -0.265894	            1.308908	            1.928874	           -0.631020	           20.422427	           17.953895
            0.006500	            0.000000	           -0.000000	           -0.000000	            0.089498	            0.000000	            0.244568	           -0.000000	           -0.000000	            0.000000	           -0.000000	            0.000000	            0.000000	           -0.155022	            0.000000	            0.264107	            0.000000	           -0.000000	            0.000000	           17.611587	          251.366035	          325.949597	            0.374329	            1.309202	            1.917588	           -0.944554	          -13.481399	          -17.481504	          -15.495640	          502.299812	          443.187563	           -0.265888	            1.308911	            1.928885	           -0.629053	           20.391104	           17.991414
            0.007000	            0.000000	           -0.000000	           -0.000000	            0.089498	            0.000000	            0.244568	           -0.000000	           -0.000000	            0.000000	           -0.000000	            0.000000	            0.000000	           -0.155022	            0.000000	            0.264107	            0.000000	           -0.000000	            0.000000	           17.937317	          250.363205	          326.126612	            0.374331	            1.309210	            1.917601	           -0.963457	          -13.447616	          -17.517053	          -15.433609	          501.018977	          443.674435	           -0.265882	            1.308914	            1.928897	           -0.627150	           20.359077	           18.028862
            0.007500	            0.000000	           -0.000000	           -0.000000	            0.089498	            0.000000	            0.244568	           -0.000000	           -0.000000	            0.000000	           -0.000000	            0.000000	            0.000000	           -0.155022	            0.000000	            0.264107	            0.000000	           -0.000000	            0.000000	           18.255094	          249.347017	          326.294419	            0.374333	            1.309218	            1.917614	           -0.982002	          -13.413199	          -17.552453	          -15.373349	          499.730503	          444.163025	           -0.265876	            1.308916	            1.928909	           -0.625306	           20.326368	           18.066180
            0.008000	            0.000000	           -0.000000	           -0.000000	            0.089498	            0.000000	            0.244568	           -0.000000	           -0.000000	            0.000000	           -0.000000	            0.000000	            0.000000	           -0.155022	            0.000000	            0.264107	            0.000000	           -0.000000	            0.000000	           18.557909	          248.315438	          326.454596	            0.374335	            1.309226	            1.917628	           -0.999809	          -13.378014	          -17.587767	          -15.319463	          498.432543	          444.655910	           -0.265870	            1.308919	            1.928921	           -0.623707	           20.292878	           18.103449
            0.008500	            0.000000	           -0.000000	           -0.000000	            0.089498	            0.000000	            0.244568	           -0.000000	           -0.000000	            0.000000	           -0.000000	           -0.000000	            0.000000	           -0.155022	            0.000000	            0.264107	           -0.000000	           -0.000000	           -0.000000	           18.852073	          247.271927	          326.603785	            0.374337	            1.309233	            1.917641	           -1.017214	          -13.342224	          -17.622788	          -15.267082	          497.129300	          445.149099	           -0.265864	            1.308922	            1.928933	           -0.622156	           20.258758	           18.140488
            0.009000	            0.000000	           -0.000000	           -0.000000	            0.089498	            0.000000	            0.244568	           -0.000000	           -0.000000	            0.000000	           -0.000000	           -0.000000	            0.000000	           -0.155022	            0.000000	            0.264107	           -0.000000	            0.000000	           -0.000000	           19.137331	          246.217162	          326.741135	            0.374339	            1.309241	            1.917654	           -1.034202	          -13.305841	          -17.657443	          -15.216047	          495.821787	          445.641946	           -0.265859	            1.308925	            1.928945	           -0.620646	           20.224038	           18.177256
            0.009500	            0.000000	           -0.000000	           -0.000000	            0.089498	            0.000000	            0.244568	           -0.000000	           -0.000000	            0.000000	           -0.000000	           -0.000000	           -0.000000	           -0.155022	            0.000000	            0.264107	           -0.000000	            0.000000	           -0.000000	           19.413496	          245.151797	          326.865824	            0.374341	            1.309249	            1.917667	           -1.050758	          -13.268877	          -17.691661	          -15.166193	          494.510901	          446.133839	           -0.265853	            1.308927	            1.928957	           -0.619170	           20.188748	           18.213721
